HIERARCHY
ROOT pelvis
{
  OFFSET 0 100 0
  CHANNELS 6 Xposition Yposition Zposition Zrotation Xrotation Yrotation
  JOINT pelvis_right_femur
  {
    OFFSET -10.78128 -3.44521 -0.5502486
    CHANNELS 3 Zrotation Xrotation Yrotation
    JOINT right_femur_tibia
    {
      OFFSET -0.8047443 -44.0398 -0.1307829
      CHANNELS 3 Zrotation Xrotation Yrotation
      JOINT right_tibia_foot
      {
        OFFSET 3.006224 -47.83518 -5
        CHANNELS 3 Zrotation Xrotation Yrotation
        End Site
        {
          OFFSET 0 -5 15
        }
      }
    }
  }
  JOINT pelvis_left_femur
  {
    OFFSET 10.78128 -3.44521 -0.5502486
    CHANNELS 3 Zrotation Xrotation Yrotation
    JOINT left_femur_tibia
    {
      OFFSET 0.8047443 -44.0398 -0.1307829
      CHANNELS 3 Zrotation Xrotation Yrotation
      JOINT left_tibia_foot
      {
        OFFSET -4.370144 -48.10324 -4.275266
        CHANNELS 3 Zrotation Xrotation Yrotation
        End Site
        {
          OFFSET 0 -5 15
        }
      }
    }
  }
  JOINT pelvis_spine1
  {
    OFFSET 0 6.468898 -3.129235
    CHANNELS 3 Zrotation Xrotation Yrotation
    JOINT spine1
    {
      OFFSET 0 23.15396 4.99043
      CHANNELS 3 Zrotation Xrotation Yrotation
      JOINT spine2
      {
        OFFSET 0 20.79997 -5.064912
        CHANNELS 3 Zrotation Xrotation Yrotation
        JOINT neck
        {
          OFFSET 0 14.38658 9.616178
          CHANNELS 3 Zrotation Xrotation Yrotation
          End Site
          {
            OFFSET 0 20 0
          }
        }
      }
      JOINT right_manubrium
      {
        OFFSET -5.722621 16.35077 3.967754
        CHANNELS 3 Zrotation Xrotation Yrotation
        JOINT right_clavicle
        {
          OFFSET -13.16364 1.694482 -4.693211
          CHANNELS 3 Zrotation Xrotation Yrotation
          JOINT right_humerus
          {
            OFFSET -28.5034 -0.3100689 -2.792744
            CHANNELS 3 Zrotation Xrotation Yrotation
            JOINT right_radius
            {
              OFFSET -25.15693 0.02248979 -1.271978
              CHANNELS 3 Zrotation Xrotation Yrotation
              End Site
              {
                OFFSET -15 0 0
              }
            }
          }
        }
      }
      JOINT left_manubrium
      {
        OFFSET 5.722621 16.35077 3.967754
        CHANNELS 3 Zrotation Xrotation Yrotation
        JOINT left_clavicle
        {
          OFFSET 13.16364 1.694482 -4.693211
          CHANNELS 3 Zrotation Xrotation Yrotation
          JOINT left_humerus
          {
            OFFSET 29.39168 -1.063119 -2.237045
            CHANNELS 3 Zrotation Xrotation Yrotation
            JOINT left_radius
            {
              OFFSET 24.59957 -0.9528479 0.9047498
              CHANNELS 3 Zrotation Xrotation Yrotation
              End Site
              {
                OFFSET 15 -0 -0
              }
            }
          }
        }
      }
    }
  }
}
MOTION
Frames: 17
Frame Time: 0.0416666666667
0 103.5113 0 1.687518 -1.358768 -0.08400953 2.972209 -14.06753 11.1298 -0 41.31656 -0 -7.512147 -15.9289 -3.743761 -7.468559 10.55377 -22.97973 -0 6.896527 -0 14.97779 -13.09227 30.21189 -4.887042 -4.50189 4.752514 2.894155 10.88343 -7.925571 1.189699 21.82367 6.269763 3.198897 -24.05269 8.695012 7.622838 -19.929 12.11889 85.05347 38.17964 -18.21067 -0 0 15.75197 -6.392838 7.10397 4.001512 5.504152 -19.78267 -1.694828 -91.96541 20.36578 19.7856 0 0 -12.20852 14.78688 14.39628 -4.137292
0.2752052 103.5328 1.572225 1.433733 -1.152656 -0.1833875 3.109599 -15.48374 10.56935 -0 40.56733 -0 -7.374886 -15.03811 -3.45399 -7.31442 10.33499 -22.53713 -0 6.396708 -0 14.30674 -13.696 29.42719 -4.616888 -4.216099 4.720091 2.824463 10.8328 -7.912509 1.183002 21.6804 6.42812 3.285561 -24.169 8.783348 7.432905 -19.92418 12.08209 85.05312 37.72856 -18.13605 -0 0 15.87944 -7.007251 7.382968 4.265312 5.777613 -19.99397 -1.696333 -91.86026 20.09327 19.70662 0 0 -12.56472 14.90061 14.37392 -4.161367
0.5542838 103.3721 3.178193 0.7454275 -0.3317617 -0.3420759 4.132943 -18.60021 10.38211 -0 37.95636 -0 -6.806982 -15.39165 -3.300733 -6.849605 10.51827 -22.65555 -0 5.870918 -0 12.46567 -15.5209 28.58236 -3.998844 -3.888451 4.730016 2.844736 10.21955 -7.908122 1.398523 21.45988 6.500032 3.311133 -24.69719 9.136472 7.060423 -19.86194 11.80655 84.87152 36.90127 -18.1446 -0 0 16.6329 -6.596055 7.49506 3.938677 6.35462 -20.00198 -1.178072 -92.65475 21.48735 20.32876 0 0 -13.15187 13.77415 15.34013 -2.601282
0.8409382 103.0212 4.9389 0.1585676 0.4144548 -0.4711043 4.904576 -21.70728 9.819489 -0 35.30811 -0 -6.448433 -14.70452 -3.029036 -6.440756 10.66221 -22.25918 -0 5.53363 -0 10.60526 -17.23489 27.23188 -3.475396 -3.470226 4.670353 2.86361 9.765835 -7.955235 1.511587 21.19984 6.642839 3.410082 -25.13682 9.348397 6.698331 -19.71154 11.60118 84.85719 36.07966 -18.31025 -0 0 16.94661 -6.729987 7.701149 3.921124 6.864327 -20.20975 -0.8665162 -93.01373 22.36648 20.57367 0 0 -14.00186 12.84488 15.92113 -1.300065
1.121551 102.4964 6.92986 -0.4036032 1.226695 -0.5577135 5.693997 -24.96007 9.162106 -0 32.20562 -0 -6.204973 -13.66336 -2.727964 -6.025448 10.93819 -21.67581 -0 5.613683 -0 8.599524 -18.99473 25.63763 -2.993929 -3.035572 4.580515 2.910109 9.311086 -8.029225 1.614446 20.89914 6.783481 3.55066 -25.57441 9.503499 6.362484 -19.44576 11.39577 84.90094 35.32314 -18.59442 -0 0 17.03335 -6.916234 7.918982 3.901252 7.379812 -20.48894 -0.5610512 -93.22097 23.12359 20.6088 0 0 -14.97072 11.95482 16.40823 -0.100589
1.382412 101.8074 9.266077 -0.8949734 2.032305 -0.567888 6.381421 -28.24708 8.262464 -0 28.59341 -0 -6.137568 -12.01568 -2.395942 -5.630531 11.37364 -20.72511 -0 6.179856 -0 6.437536 -20.72112 23.62217 -2.59315 -2.55112 4.420966 2.998311 8.911955 -8.157271 1.666622 20.56288 6.927848 3.731624 -25.96784 9.535649 6.029673 -19.04307 11.21611 85.07737 34.57025 -19.05985 -0 0 16.72102 -7.314066 8.139953 4.003018 7.835706 -20.88366 -0.3643754 -93.10457 23.65163 20.27618 0 0 -16.16303 11.09055 16.65265 0.9881663
1.606788 100.9709 12.09209 -1.268815 2.754133 -0.4647557 6.880626 -31.35502 7.050148 -0 24.38519 -0 -6.290455 -9.732065 -2.05019 -5.284393 12.0308 -19.32097 -0 7.402915 -0 4.168754 -22.28271 21.13818 -2.309098 -2.017288 4.166434 3.142988 8.603875 -8.350083 1.651665 20.20489 7.055231 3.939125 -26.27175 9.396401 5.685419 -18.4799 11.07339 85.43305 33.79497 -19.73318 -0 0 15.88748 -7.962904 8.336992 4.2634 8.173599 -21.39459 -0.3431459 -92.54553 23.83992 19.4276 0 0 -17.59072 10.30287 16.53828 1.851796
1.776718 100.0151 15.57696 -1.45702 3.257532 -0.2123438 7.070004 -33.87128 5.479817 -0 19.60005 -0 -6.691929 -6.903258 -1.728705 -5.035396 12.96558 -17.39964 -0 9.458789 -0 1.940092 -23.44743 18.21591 -2.181254 -1.451987 3.792204 3.35536 8.437289 -8.612944 1.552228 19.86139 7.130946 4.138861 -26.41548 9.034805 5.296793 -17.7526 10.97802 86.02924 32.94844 -20.62347 -0 0 14.41318 -8.889116 8.468731 4.717145 8.302276 -21.99445 -0.592031 -91.43788 23.53817 17.92132 0 0 -19.22616 9.670846 15.91716 2.326889
1.878939 98.99111 19.88237 -1.394498 3.370435 0.2144872 6.872637 -35.16151 3.656149 -0 14.54199 -0 -7.303243 -3.90838 -1.504766 -4.936965 14.17309 -15.03145 -0 12.44339 -0 0.03188927 -23.878 15.0845 -2.213788 -0.9205268 3.29927 3.621963 8.453295 -8.925342 1.368268 19.60104 7.109793 4.268917 -26.31858 8.445612 4.807622 -16.91133 10.92402 86.91276 31.97121 -21.67771 -0 0 12.29278 -10.04103 8.498422 5.338659 8.128909 -22.59344 -1.185024 -89.8114 22.61507 15.75766 0 0 -20.93872 9.309269 14.69628 2.218469
1.914906 97.99239 25.08258 -1.106797 2.993378 0.8120094 6.42906 -34.58657 2.034061 -0 10.1271 -0 -7.965132 -1.531434 -1.501662 -4.979364 15.49665 -12.60237 -0 16.21775 -0 -1.276228 -23.21727 12.2455 -2.286718 -0.571207 2.753402 3.868072 8.616051 -9.215479 1.142672 19.52125 6.967084 4.249248 -25.9571 7.755998 4.156075 -16.09848 10.86281 88.05797 30.84294 -22.74973 -0 0 9.828106 -11.17799 8.430001 5.949717 7.642637 -23.01194 -2.052566 -88.02594 21.23031 13.35168 0 0 -22.44702 9.266304 13.05513 1.530827
1.907572 97.17235 31.0477 -0.8759316 2.320519 1.507181 6.214132 -32.18208 1.407903 -0 8.122343 -0 -8.46991 -0.693397 -1.820467 -4.960983 16.54641 -10.91776 -0 20.43548 -0 -2.167797 -21.28265 10.29165 -2.042769 -0.6110304 2.312893 3.930552 8.720694 -9.346538 0.9671987 19.69308 6.773735 4.044995 -25.48129 7.285133 3.374528 -15.51846 10.70053 89.26985 29.71919 -23.62556 -0 0 7.783513 -11.80378 8.340476 6.163036 7.034011 -23.02915 -2.819447 -86.84643 20.25033 11.76526 0 0 -23.33167 9.345153 11.73622 0.8774747
1.891042 96.7353 37.40944 -1.235717 1.853894 2.111476 6.776286 -29.18054 2.212614 -0 10.28013 -0 -8.893972 -1.557673 -2.311693 -4.50878 16.68253 -10.71306 -0 25.38738 -0 -3.608969 -18.19636 9.334482 -1.005256 -1.04632 2.167096 3.654266 8.481524 -9.174602 0.898829 20.05797 6.733385 3.783722 -25.20317 7.331809 2.771855 -15.25051 10.42652 90.12176 29.07004 -24.09549 -0 0 7.062877 -11.4832 8.326702 5.658964 6.583382 -22.55474 -2.97334 -87.09648 20.94367 12.31324 0 0 -23.13689 9.025094 11.77877 1.506703
1.895841 96.86682 43.75521 -2.25391 1.676516 2.393855 7.996775 -26.47382 3.591869 -0 15.4841 -0 -9.70295 -3.201846 -2.541519 -3.587121 14.94851 -11.49681 -0 33.00958 -0 -6.052116 -14.21274 8.743172 0.6837012 -1.321913 2.398956 3.143119 8.036901 -8.685592 0.8610994 20.4593 6.94242 3.72158 -25.16752 7.665975 2.837966 -15.1289 10.32105 90.16801 29.45841 -23.89878 -0 0 7.71972 -10.70842 8.515717 4.892873 6.168042 -21.78241 -2.639174 -88.78672 23.02909 14.98929 0 0 -21.58926 7.946982 13.03224 3.828749
1.949196 97.60342 49.85355 -2.924434 1.040357 2.23276 8.655589 -22.70559 4.015377 -0 19.0494 -0 -10.97932 -5.012765 -2.349237 -2.809789 10.46593 -11.78094 -0 44.19198 -0 -7.889694 -9.918055 8.206809 1.80272 -0.8420596 2.993708 2.700925 8.046287 -8.018595 0.8222926 20.90822 7.074875 3.888545 -24.89444 7.665817 3.542886 -15.05968 10.66185 89.46903 30.87999 -22.79951 -0 0 8.691334 -10.78188 9.225277 4.877995 5.42372 -21.12923 -2.570054 -90.44736 24.36891 17.55294 0 0 -19.13807 6.761468 13.91787 6.070214
2.035614 98.75686 55.61464 -2.490698 -0.4039892 1.72896 8.025523 -16.86215 3.291208 -0 18.43624 -0 -12.11296 -6.914633 -2.059547 -2.530731 3.806401 -11.09139 -0 55.13476 -0 -7.830973 -6.620446 8.344744 1.522533 0.09928138 3.901246 2.370675 8.659678 -7.291117 0.9052696 21.54867 6.807464 4.063341 -24.03242 7.202594 4.195125 -15.18573 11.20667 88.52989 32.54937 -20.99578 -0 0 9.258125 -12.02908 10.38559 5.711981 4.628603 -20.88563 -2.869756 -90.92276 24.2003 18.3846 0 0 -16.87273 6.314615 13.94002 6.680969
2.100902 99.99749 61.00772 -1.360773 -2.162492 1.139214 6.771396 -10.04257 2.333702 -0 15.38814 -0 -12.66378 -8.548737 -1.857793 -2.435575 -3.462802 -9.916706 -0 61.40276 -0 -6.62967 -5.003511 9.528148 0.3712812 0.9104059 4.960838 1.992747 9.416815 -6.534756 1.098312 22.28959 6.280476 4.160488 -22.73139 6.563339 4.361651 -15.65005 11.61218 87.55814 33.68975 -18.83436 -0 0 9.828902 -13.74945 11.36438 6.776532 4.274407 -20.96078 -3.136373 -90.78088 23.26321 18.32209 0 0 -15.25933 6.479467 13.67812 6.110512
2.13454 100.9785 66.0739 -0.1923636 -3.684191 0.6178267 5.62022 -3.546572 1.624283 -0 12.01248 -0 -12.67644 -9.742104 -1.657012 -2.129448 -10.34614 -8.534708 -0 61.6218 -0 -5.277022 -4.643147 11.41572 -0.8469988 1.396963 5.964773 1.527482 9.994392 -5.79892 1.235569 22.89139 5.770619 4.220581 -21.30944 5.904699 4.107625 -16.50716 11.82576 86.43782 34.1013 -16.45139 -0 0 11.00017 -15.39113 11.74104 7.747187 4.416617 -21.13381 -3.219118 -90.76143 22.08606 18.56428 0 0 -14.09381 6.80398 13.3773 5.263614
